<?xml version="1.0" standalone="no"?>
<!DOCTYPE svg PUBLIC "-//W3C//DTD SVG 20010904//EN"
 "http://www.w3.org/TR/2001/REC-SVG-20010904/DTD/svg10.dtd">
<svg version="1.0" xmlns="http://www.w3.org/2000/svg"
 width="256.000000pt" height="256.000000pt" viewBox="0 0 256.000000 256.000000"
 preserveAspectRatio="xMidYMid meet">
<metadata>
Created by potrace 1.14, written by Peter Selinger 2001-2017
</metadata>
<g transform="translate(0.000000,256.000000) scale(0.100000,-0.100000)"
fill="#000000" stroke="none">
<path d="M463 2229 c-45 -13 -116 -86 -131 -135 -16 -56 -17 -1559 -1 -1619
14 -49 59 -108 102 -132 30 -17 83 -18 833 -21 775 -2 803 -1 845 17 53 24
102 77 117 129 17 57 17 1568 0 1625 -7 22 -28 57 -48 78 -67 72 -32 69 -904
68 -440 0 -795 -5 -813 -10z m871 -437 c27 -64 57 -135 66 -157 54 -130 50
-125 89 -126 20 0 45 -2 56 -4 11 -2 49 -6 85 -9 36 -3 101 -8 144 -12 97 -8
100 -8 106 -15 3 -3 -35 -41 -85 -84 -49 -43 -119 -103 -154 -134 -35 -31 -67
-58 -72 -61 -7 -5 17 -127 75 -370 8 -35 14 -65 13 -66 -1 -1 -46 24 -100 57
-54 32 -102 59 -107 59 -6 0 -10 5 -10 10 0 6 -5 10 -11 10 -6 0 -30 14 -54
30 -24 17 -47 30 -51 30 -4 0 -15 7 -24 15 -14 13 -36 2 -205 -100 -105 -62
-191 -112 -193 -110 -2 2 2 23 8 46 7 24 14 53 16 64 10 49 14 67 43 185 l30
125 -43 40 c-23 22 -69 63 -101 90 -32 28 -74 64 -94 82 -20 17 -49 43 -66 57
-16 14 -25 26 -20 27 6 0 19 2 30 4 11 3 47 6 81 9 33 3 99 8 145 12 46 4 98
8 114 9 17 1 37 3 46 4 11 1 42 63 100 201 46 110 86 200 89 200 3 0 27 -53
54 -118z"/>
</g>
</svg>
